<svg width="34" height="34" viewBox="0 0 34 34" fill="none" xmlns="http://www.w3.org/2000/svg">
<circle cx="17" cy="17" r="17" transform="rotate(-180 17 17)" fill="#1C1C4F"/>
<path d="M12.8231 16.6382C12.8947 16.6384 12.9656 16.6244 13.0318 16.597C13.098 16.5697 13.1581 16.5296 13.2087 16.4789C13.2594 16.4283 13.2995 16.3682 13.3269 16.302C13.3542 16.2358 13.3682 16.1649 13.3681 16.0933L13.3681 14.4573L19.9101 14.4573L19.9101 16.0933C19.9101 16.2378 19.9675 16.3764 20.0697 16.4786C20.1719 16.5808 20.3105 16.6382 20.4551 16.6382C20.5996 16.6382 20.7382 16.5808 20.8405 16.4786C20.9427 16.3764 21.0001 16.2378 21.0001 16.0933L21.0001 13.9133C21.0001 13.7687 20.9427 13.6301 20.8405 13.5279C20.7382 13.4257 20.5996 13.3683 20.4551 13.3683L12.8231 13.3683C12.6784 13.3686 12.5398 13.4262 12.4376 13.5286C12.3355 13.6309 12.2781 13.7696 12.2781 13.9142L12.2781 16.0943C12.2783 16.2387 12.3359 16.377 12.4381 16.479C12.5402 16.581 12.6787 16.6382 12.8231 16.6382Z" fill="white"/>
<path d="M17.8891 18.4332L17.1891 19.1382L17.1891 16.0933C17.1891 15.9487 17.1316 15.8101 17.0294 15.7079C16.9272 15.6057 16.7886 15.5482 16.6441 15.5482C16.4995 15.5482 16.3609 15.6057 16.2587 15.7079C16.1565 15.8101 16.0991 15.9487 16.0991 16.0933L16.0991 19.1382L15.3991 18.4332C15.2968 18.331 15.1582 18.2736 15.0136 18.2736C14.869 18.2736 14.7303 18.331 14.6281 18.4332C14.5258 18.5355 14.4684 18.6741 14.4684 18.8187C14.4684 18.9633 14.5258 19.102 14.6281 19.2042L16.2631 20.8403C16.3137 20.8909 16.3738 20.9311 16.4399 20.9585C16.5061 20.9859 16.577 21 16.6486 21C16.7202 21 16.7911 20.9859 16.8572 20.9585C16.9234 20.9311 16.9835 20.8909 17.0341 20.8403L18.6691 19.2042C18.7671 19.1013 18.821 18.9641 18.8193 18.822C18.8176 18.6798 18.7604 18.5439 18.6599 18.4434C18.5595 18.3428 18.4237 18.2854 18.2816 18.2835C18.1394 18.2816 18.0022 18.3353 17.8991 18.4332L17.8891 18.4332Z" fill="white"/>
</svg>
