<svg width="34" height="34" viewBox="0 0 34 34" fill="none" xmlns="http://www.w3.org/2000/svg">
<circle cx="17" cy="17" r="17" fill="#1C1C4F"/>
<path d="M21.177 17.3618C21.1054 17.3616 21.0345 17.3756 20.9683 17.403C20.9021 17.4303 20.842 17.4704 20.7913 17.5211C20.7407 17.5717 20.7005 17.6318 20.6732 17.698C20.6459 17.7642 20.6319 17.8351 20.632 17.9067V19.5427H14.09V17.9067C14.09 17.7622 14.0326 17.6236 13.9304 17.5214C13.8282 17.4192 13.6895 17.3618 13.545 17.3618C13.4004 17.3618 13.2618 17.4192 13.1596 17.5214C13.0574 17.6236 13 17.7622 13 17.9067V20.0867C13 20.2313 13.0574 20.3699 13.1596 20.4721C13.2618 20.5743 13.4004 20.6317 13.545 20.6317H21.177C21.3216 20.6314 21.4602 20.5738 21.5624 20.4714C21.6646 20.3691 21.722 20.2304 21.722 20.0858V17.9057C21.7217 17.7613 21.6642 17.623 21.562 17.521C21.4598 17.419 21.3214 17.3618 21.177 17.3618Z" fill="white"/>
<path d="M16.111 15.5668L16.811 14.8618V17.9067C16.811 18.0513 16.8684 18.1899 16.9706 18.2921C17.0728 18.3943 17.2115 18.4518 17.356 18.4518C17.5005 18.4518 17.6392 18.3943 17.7414 18.2921C17.8436 18.1899 17.901 18.0513 17.901 17.9067V14.8618L18.601 15.5668C18.7032 15.669 18.8419 15.7264 18.9865 15.7264C19.1311 15.7264 19.2698 15.669 19.372 15.5668C19.4742 15.4645 19.5317 15.3259 19.5317 15.1813C19.5317 15.0367 19.4742 14.898 19.372 14.7958L17.737 13.1597C17.6864 13.1091 17.6263 13.0689 17.5601 13.0415C17.494 13.0141 17.4231 13 17.3515 13C17.2799 13 17.209 13.0141 17.1429 13.0415C17.0767 13.0689 17.0166 13.1091 16.966 13.1597L15.331 14.7958C15.233 14.8987 15.1791 15.0359 15.1808 15.178C15.1825 15.3202 15.2397 15.4561 15.3401 15.5566C15.4406 15.6572 15.5764 15.7146 15.7185 15.7165C15.8607 15.7184 15.9979 15.6647 16.101 15.5668H16.111Z" fill="white"/>
</svg>
